<svg width="21" height="18" xmlns="http://www.w3.org/2000/svg" xmlns:xlink="http://www.w3.org/1999/xlink" xmlns:svgjs="http://svgjs.com/svgjs" viewBox="0.157 0 20.687 18" fill="#fff"><svg xmlns="http://www.w3.org/2000/svg" width="21" height="18" viewBox="2.096 2.095 19.428 16.905"><path paint-order="stroke fill markers" fill-rule="evenodd" d="M9.353 15.77c-.896 0-1.623.723-1.623 1.615S8.457 19 9.353 19s1.622-.723 1.622-1.615-.726-1.615-1.622-1.615zm7.082 0c-.897 0-1.623.723-1.623 1.615S15.538 19 16.435 19c.895 0 1.622-.723 1.622-1.615s-.727-1.615-1.622-1.615zm4.076-8.85l-8.989-.002a.812.812 0 00-.813.81c0 .447.364.81.813.81h7.953l-.505 1.699-8.085.002a.753.753 0 00-.755.75c0 .415.338.752.755.752l7.638.003-.474 1.589H8.937l-.604-4.796-.577-4.673a.909.909 0 00-.68-.765l-3.843-.976a.908.908 0 10-.45 1.76l3.242.822 1.262 9.429s.043 1.1 1.047 1.1h10.071c.844 0 1.007-.876 1.007-.876l1.996-5.9S22 6.92 20.511 6.92z"/></svg></svg>