<svg version="1.1" xmlns="http://www.w3.org/2000/svg" xmlns:xlink="http://www.w3.org/1999/xlink" width="19" height="48"><defs/><g><path fill="rgb(255,88,22)" stroke="none" paint-order="stroke fill markers" fill-rule="evenodd" d=" M 4.390113830566406 1.9998817443847656 C 4.390113830566406 1.9998817443847656 1.000030517578125 4.056060791015625 1.000030517578125 4.056060791015625 C 1.000030517578125 4.056060791015625 10.457427978515625 25.028064727783203 10.457427978515625 25.028064727783203 C 10.457427978515625 25.028064727783203 17.000015258789062 23.77857494354248 17.000015258789062 23.77857494354248 C 17.000015258789062 23.77857494354248 4.390113830566406 1.9998817443847656 4.390113830566406 1.9998817443847656 C 4.390113830566406 1.9998817443847656 4.390113830566406 1.9998817443847656 4.390113830566406 1.9998817443847656 M 4.390113830566406 46.00006866455078 C 4.390113830566406 46.00006866455078 1.000030517578125 43.94388961791992 1.000030517578125 43.94388961791992 C 1.000030517578125 43.94388961791992 10.457427978515625 22.971885681152344 10.457427978515625 22.971885681152344 C 10.457427978515625 22.971885681152344 17.000015258789062 24.221375465393066 17.000015258789062 24.221375465393066 C 17.000015258789062 24.221375465393066 4.390113830566406 46.00006866455078 4.390113830566406 46.00006866455078 C 4.390113830566406 46.00006866455078 4.390113830566406 46.00006866455078 4.390113830566406 46.00006866455078"/></g></svg>