<svg version="1.1" xmlns="http://www.w3.org/2000/svg" xmlns:xlink="http://www.w3.org/1999/xlink" width="18" height="48"><defs/><g><path fill="rgb(255,88,22)" stroke="none" paint-order="stroke fill markers" fill-rule="evenodd" d=" M 13.609901428222656 1.9998817443847656 C 13.609901428222656 1.9998817443847656 16.999984741210938 4.056060791015625 16.999984741210938 4.056060791015625 C 16.999984741210938 4.056060791015625 7.542472839355469 25.028064727783203 7.542472839355469 25.028064727783203 C 7.542472839355469 25.028064727783203 1 23.77857494354248 1 23.77857494354248 C 1 23.77857494354248 13.609901428222656 1.9998817443847656 13.609901428222656 1.9998817443847656 C 13.609901428222656 1.9998817443847656 13.609901428222656 1.9998817443847656 13.609901428222656 1.9998817443847656 M 13.609901428222656 46.00006866455078 C 13.609901428222656 46.00006866455078 16.999984741210938 43.94388961791992 16.999984741210938 43.94388961791992 C 16.999984741210938 43.94388961791992 7.542472839355469 22.971885681152344 7.542472839355469 22.971885681152344 C 7.542472839355469 22.971885681152344 1 24.221375465393066 1 24.221375465393066 C 1 24.221375465393066 13.609901428222656 46.00006866455078 13.609901428222656 46.00006866455078 C 13.609901428222656 46.00006866455078 13.609901428222656 46.00006866455078 13.609901428222656 46.00006866455078"/></g></svg>