<svg width="21" height="22" xmlns="http://www.w3.org/2000/svg" xmlns:xlink="http://www.w3.org/1999/xlink" xmlns:svgjs="http://svgjs.com/svgjs" viewBox="0.024 0 20.953 22" fill="#fff"><svg xmlns="http://www.w3.org/2000/svg" width="21" height="22" viewBox="2 2 20 21"><path paint-order="stroke fill markers" fill-rule="evenodd" d="M21.362 13.737A3.568 3.568 0 0 0 22 11.68c0-.867-.33-1.62-.99-2.26-.66-.64-1.44-.96-2.343-.96h-2.292c.417-.832.625-1.64.625-2.422 0-.985-.152-1.767-.455-2.347a2.82 2.82 0 0 0-1.329-1.282C14.634 2.136 13.98 2 13.25 2a1.68 1.68 0 0 0-1.172.467c-.373.354-.642.808-.807 1.364a17.293 17.293 0 0 0-.397 1.596c-.1.509-.254.868-.462 1.079-.426.446-.89.984-1.394 1.615-.877 1.102-1.471 1.754-1.784 1.957H3.667c-.46 0-.853.157-1.179.473A1.534 1.534 0 0 0 2 11.692v8.077c0 .446.163.826.488 1.142.326.315.719.473 1.179.473h3.75c.19 0 .79.169 1.796.505 1.068.362 2.008.637 2.82.827.811.189 1.633.283 2.467.283h1.68c1.224 0 2.209-.338 2.955-1.016.747-.677 1.116-1.6 1.107-2.77.52-.648.781-1.396.781-2.246a3.71 3.71 0 0 0-.039-.543c.33-.563.495-1.169.495-1.817a3.19 3.19 0 0 0-.117-.87zM5.086 19.529a.814.814 0 0 1-.586.24.814.814 0 0 1-.586-.24.765.765 0 0 1-.247-.568c0-.219.082-.408.247-.568.165-.16.36-.24.586-.24.226 0 .421.08.586.24.165.16.247.35.247.568 0 .219-.082.408-.247.568zm14.968-6.814c-.187.387-.42.584-.697.593.13.143.239.343.326.599.086.257.13.49.13.7 0 .581-.23 1.082-.69 1.502.156.27.234.56.234.87 0 .312-.076.621-.228.928-.152.307-.358.528-.618.662.043.253.065.489.065.708 0 1.404-.834 2.107-2.5 2.107H14.5c-1.137 0-2.621-.307-4.453-.92a91.063 91.063 0 0 0-.84-.29c-.1-.035-.252-.084-.456-.147a5.965 5.965 0 0 0-.924-.221 2.761 2.761 0 0 0-.41-.037H7v-8.077h.417c.139 0 .293-.038.462-.113.17-.076.343-.19.52-.341.179-.152.346-.301.502-.448.156-.147.33-.332.521-.555a26.727 26.727 0 0 0 .86-1.055 22.189 22.189 0 0 1 1.302-1.527c.355-.361.614-.822.774-1.38.16-.56.293-1.088.397-1.585.104-.496.27-.854.495-1.073.833 0 1.39.198 1.667.594.278.395.416 1.005.416 1.83 0 .496-.208 1.17-.625 2.025-.416.854-.625 1.525-.625 2.013h4.584c.434 0 .82.162 1.159.485.338.325.508.701.508 1.13 0 .295-.094.635-.28 1.023z"/></svg></svg>